<svg id="Layer_1" data-name="Layer 1" xmlns="http://www.w3.org/2000/svg" viewBox="0 0 504.4 92.6"><defs><style>.cls-1{fill:#444545;}.cls-2{fill:#025fa9;}</style></defs><title>EG-LogoWide-SVG</title><path class="cls-1" d="M32.89,52.75H15v10H36.13v7.76H3.57V28.68H36.2v7.78H15v8.82H32.89Z" transform="translate(-3.57)"/><path class="cls-1" d="M59.12,59.13l9.41-30.45H81.26L65.35,70.51H52.89L37.11,28.68H49.74Z" transform="translate(-3.57)"/><path class="cls-1" d="M114,52.75H96.1v10h21.16v7.76H84.7V28.68h32.63v7.78H96.1v8.82H114Z" transform="translate(-3.57)"/><path class="cls-1" d="M161.38,70.51H150.05l-16.75-26v26H121.91V28.68H133.3l16.72,26v-26h11.36Z" transform="translate(-3.57)"/><path class="cls-1" d="M204.76,36.46H190.57V70.51H179.18V36.46H165.25V28.68h39.51Z" transform="translate(-3.57)"/><path class="cls-1" d="M246.38,65a14.26,14.26,0,0,1-6.71,4.55,30.07,30.07,0,0,1-10,1.51,21.41,21.41,0,0,1-10.26-2.4,16.81,16.81,0,0,1-6.93-6.82A21.34,21.34,0,0,1,210,51.6V48q0-9.45,5-14.65t14-5.2q7.4,0,11.91,3.35a14.13,14.13,0,0,1,5.52,9.49h-6.23Q238.4,32.62,229,32.61q-6.27,0-9.5,3.9T216.22,47.8v3.42q0,7,3.63,11.2a12.42,12.42,0,0,0,9.84,4.15,24.38,24.38,0,0,0,6.14-.69,9.71,9.71,0,0,0,4.35-2.32V54.19H229.24V49.68h17.14Z" transform="translate(-3.57)"/><path class="cls-1" d="M283.49,51.17H263V66h23.8v4.51h-30V28.68h29.7v4.51H263V46.66h20.49Z" transform="translate(-3.57)"/><path class="cls-1" d="M320.66,59.56h-19.8l-4.45,11H290l18-41.83h5.46l18.08,41.83h-6.4Zm-17.92-4.51h16.07l-8.05-19.56Z" transform="translate(-3.57)"/><path class="cls-1" d="M355.27,53.59H344.16V70.51H337.9V28.68h15.65q8,0,12.28,3.21t4.31,9.37a10.38,10.38,0,0,1-2.39,6.81,14.27,14.27,0,0,1-6.64,4.34l11.1,17.75v.35h-6.68Zm-11.11-4.51h9.58A11.74,11.74,0,0,0,361.13,47a6.84,6.84,0,0,0,2.74-5.7,7.16,7.16,0,0,0-2.61-6c-1.75-1.38-4.26-2.08-7.55-2.1h-9.55Z" transform="translate(-3.57)"/><path class="cls-2" d="M507.93,18.74l-2.79-6.57-7.27,1.58a19.55,19.55,0,0,0-4-3.89l1.56-7.15L488.75,0l-4,6.17a19.9,19.9,0,0,0-5.61,0L475.08,0l-6.69,2.74L470,9.92a19.84,19.84,0,0,0-4,3.91l-7.28-1.54L456,18.88l6.28,3.94a19.2,19.2,0,0,0,0,5.51l-6.25,4,2.79,6.57,7.27-1.58a19.55,19.55,0,0,0,4,3.89l-1.56,7.15,6.7,2.71,4-6.17a19.9,19.9,0,0,0,5.61,0L488.89,51l6.69-2.74L494,41.12a19.84,19.84,0,0,0,4-3.91l7.29,1.54L508,32.16l-6.28-3.94a19.2,19.2,0,0,0,0-5.51ZM486.45,36a11.68,11.68,0,0,1-15.17-6.13A11.32,11.32,0,0,1,477.52,15a11.67,11.67,0,0,1,15.17,6.13A11.32,11.32,0,0,1,486.45,36Z" transform="translate(-3.57)"/><path class="cls-2" d="M465.09,56.32V44.89L453.31,42.8a30.67,30.67,0,0,0-3.45-8.18L456.69,25l-8.24-8.09-9.84,6.71a32,32,0,0,0-8.32-3.4L428.16,8.61H416.51l-2.12,11.57a32.07,32.07,0,0,0-8.33,3.4l-9.84-6.71L388,25l6.83,9.66a31,31,0,0,0-3.46,8.18l-11.78,2.09V56.32l11.78,2.09a31,31,0,0,0,3.46,8.18L388,76.25l8.23,8.09,9.84-6.71a32.07,32.07,0,0,0,8.33,3.4l2.12,11.57h11.65L430.29,81a32,32,0,0,0,8.32-3.4l9.84,6.71,8.24-8.09-6.83-9.66a30.67,30.67,0,0,0,3.45-8.18Zm-42.75,12.6A18.32,18.32,0,1,1,441,50.61,18.48,18.48,0,0,1,422.34,68.92Z" transform="translate(-3.57)"/></svg>