<svg xmlns="http://www.w3.org/2000/svg" width="544.49" height="544.489" style="enable-background:new 0 0 544.49 544.489" xml:space="preserve"><circle cx="243.92" cy="23.18" r="1.606"/><circle cx="248.616" cy="23.18" r="1.606"/><circle cx="253.301" cy="23.18" r="1.606"/><circle cx="257.987" cy="23.18" r="1.606"/><circle cx="262.682" cy="23.18" r="1.606"/><circle cx="267.377" cy="23.18" r="1.606"/><circle cx="272.063" cy="23.18" r="1.606"/><circle cx="276.749" cy="23.18" r="1.606"/><circle cx="281.434" cy="23.18" r="1.606"/><circle cx="286.149" cy="23.18" r="1.606"/><circle cx="290.834" cy="23.18" r="1.606"/><circle cx="295.52" cy="23.18" r="1.606"/><circle cx="300.206" cy="23.18" r="1.606"/><circle cx="304.901" cy="23.18" r="1.606"/><path d="M392.923 0H151.576c-19.508 0-35.314 15.807-35.314 35.314v473.86c0 19.507 15.807 35.314 35.314 35.314h241.338c19.508 0 35.314-15.808 35.314-35.314V35.314C428.238 15.807 412.431 0 392.923 0zm-24.69 20.971a3.905 3.905 0 0 1 3.901 3.901 3.905 3.905 0 0 1-3.901 3.901 3.899 3.899 0 0 1-3.901-3.901c-.01-2.151 1.74-3.901 3.901-3.901zm-137.757-3.367h87.219a5.566 5.566 0 0 1 5.575 5.565 5.56 5.56 0 0 1-5.575 5.565h-87.219a5.566 5.566 0 0 1-5.575-5.565 5.574 5.574 0 0 1 5.575-5.565zm-35.582 503.658h-8.587a1.043 1.043 0 0 1 0-2.085h8.587c.583 0 1.042.479 1.042 1.042a1.052 1.052 0 0 1-1.042 1.043zm0-4.189h-8.587a1.029 1.029 0 0 1-1.033-1.033c0-.573.459-1.042 1.033-1.042h8.587c.583 0 1.042.469 1.042 1.042a1.043 1.043 0 0 1-1.042 1.033zm7.229 2.725a2.233 2.233 0 0 1-2.228 2.238 2.24 2.24 0 0 1-2.238-2.238v-7.372h-14.124v7.372a2.232 2.232 0 0 1-2.228 2.238 2.24 2.24 0 0 1-2.237-2.238v-9.601a2.24 2.24 0 0 1 2.237-2.237h18.59a2.232 2.232 0 0 1 2.228 2.237v9.601zm98.083-.688c0 4.876-3.959 8.826-8.836 8.826h-38.623c-4.887 0-8.836-3.95-8.836-8.826v-7.727c0-4.877 3.949-8.826 8.836-8.826h38.623c4.877 0 8.836 3.949 8.836 8.826v7.727zm57.652 3.347h-7.01a2.233 2.233 0 0 1-2.228-2.238c0-1.233.994-2.228 2.228-2.228h7.01c1.511 0 2.734-1.177 2.734-2.62 0-1.444-1.224-2.61-2.734-2.61h-5.91c-.22.306-.497.459-.994.497-.124.066-.335-.029-.487-.096l-3.644-1.54a1.209 1.209 0 0 1-.736-1.1c0-.478.287-.918.727-1.1l3.644-1.539a1.196 1.196 0 0 1 1.31.258c.048.048.096.096.134.153h5.958c3.969 0 7.19 3.184 7.19 7.086-.002 3.902-3.223 7.077-7.192 7.077zm46.827-30.944H136.859V54.449h267.826v437.064z"/></svg>